<svg width="32" height="32" viewBox="0 0 32 32" fill="none" xmlns="http://www.w3.org/2000/svg">
<g id="vuesax/bold/medal">
<g id="medal">
<path id="Vector" d="M16 20.0001C20.9706 20.0001 25 16.1199 25 11.3334C25 6.54695 20.9706 2.66675 16 2.66675C11.0294 2.66675 7 6.54695 7 11.3334C7 16.1199 11.0294 20.0001 16 20.0001Z" fill="#292D32"/>
<path id="Vector_2" d="M21.0533 20.8133C21.4933 20.5866 22 20.9199 22 21.4133V27.8799C22 29.0799 21.16 29.6666 20.12 29.1733L16.5467 27.4799C16.24 27.3466 15.76 27.3466 15.4533 27.4799L11.88 29.1733C10.84 29.6533 10 29.0666 10 27.8666L10.0267 21.4133C10.0267 20.9199 10.5467 20.5999 10.9733 20.8133C12.48 21.5733 14.1867 21.9999 16 21.9999C17.8133 21.9999 19.5333 21.5733 21.0533 20.8133Z" fill="#292D32"/>
</g>
</g>
</svg>
