<svg width="32" height="32" viewBox="0 0 32 32" fill="none" xmlns="http://www.w3.org/2000/svg">
<g id="vuesax/bold/note">
<g id="note">
<path id="Vector" d="M11.0533 8.38675C10.4933 8.38675 10.0533 7.93341 10.0533 7.38675V3.66675C10.0533 3.12008 10.4933 2.66675 11.0533 2.66675C11.6133 2.66675 12.0533 3.12008 12.0533 3.66675V7.37341C12.0533 7.93341 11.6133 8.38675 11.0533 8.38675Z" fill="#292D32"/>
<path id="Vector_2" d="M20.9467 8.38675C20.3867 8.38675 19.9467 7.93341 19.9467 7.38675V3.66675C19.9467 3.10675 20.4 2.66675 20.9467 2.66675C21.5067 2.66675 21.9467 3.12008 21.9467 3.66675V7.37341C21.9467 7.93341 21.5067 8.38675 20.9467 8.38675Z" fill="#292D32"/>
<path id="Vector_3" d="M26.0933 6.00008C25.2133 5.34675 23.9466 5.97341 23.9466 7.08008V7.21341C23.9466 8.77341 22.8266 10.2134 21.2666 10.3734C19.4666 10.5601 17.9466 9.14675 17.9466 7.38675V6.00008C17.9466 5.26675 17.3466 4.66675 16.6133 4.66675H15.3866C14.6533 4.66675 14.0533 5.26675 14.0533 6.00008V7.38675C14.0533 8.44008 13.5066 9.37341 12.68 9.89341C12.56 9.97341 12.4266 10.0401 12.2933 10.1067C12.1733 10.1734 12.04 10.2267 11.8933 10.2667C11.7333 10.3201 11.56 10.3601 11.3733 10.3734C11.16 10.4001 10.9466 10.4001 10.7333 10.3734C10.5466 10.3601 10.3733 10.3201 10.2133 10.2667C10.08 10.2267 9.94665 10.1734 9.81331 10.1067C9.67998 10.0401 9.54665 9.97341 9.42665 9.89341C8.58665 9.30675 8.05331 8.29341 8.05331 7.21341V7.08008C8.05331 6.05341 6.95998 5.44008 6.09331 5.88008C6.07998 5.89341 6.06665 5.89341 6.05331 5.90675C5.99998 5.93341 5.95998 5.96008 5.90665 6.00008C5.86665 6.04008 5.81331 6.06675 5.77331 6.10675C5.39998 6.40008 5.06665 6.73341 4.78665 7.09341C4.63998 7.25341 4.51998 7.42675 4.41331 7.60008C4.39998 7.61341 4.38665 7.62675 4.37331 7.65341C4.25331 7.82675 4.14665 8.02675 4.05331 8.21341C4.02665 8.24008 4.01331 8.25341 4.01331 8.28008C3.93331 8.44008 3.85331 8.60008 3.79998 8.77341C3.75998 8.84008 3.74665 8.89341 3.71998 8.96008C3.63998 9.16008 3.58665 9.36008 3.53331 9.56008C3.47998 9.74675 3.43998 9.94675 3.41331 10.1467C3.38665 10.2934 3.37331 10.4401 3.35998 10.6001C3.34665 10.7867 3.33331 10.9734 3.33331 11.1601V22.8401C3.33331 26.4267 6.23998 29.3334 9.82665 29.3334H22.1733C25.76 29.3334 28.6666 26.4267 28.6666 22.8401V11.1601C28.6666 9.04008 27.6533 7.18675 26.0933 6.00008ZM16 23.2267H9.81331C9.26665 23.2267 8.81331 22.7734 8.81331 22.2267C8.81331 21.6667 9.26665 21.2134 9.81331 21.2134H16C16.56 21.2134 17 21.6667 17 22.2267C17 22.7734 16.56 23.2267 16 23.2267ZM19.7066 18.2801H9.81331C9.26665 18.2801 8.81331 17.8267 8.81331 17.2801C8.81331 16.7201 9.26665 16.2667 9.81331 16.2667H19.7066C20.2666 16.2667 20.72 16.7201 20.72 17.2801C20.72 17.8267 20.2666 18.2801 19.7066 18.2801Z" fill="#292D32"/>
</g>
</g>
</svg>
