<svg width="24" height="25" viewBox="0 0 24 25" fill="none" xmlns="http://www.w3.org/2000/svg">
<g id="vuesax/bold/search-status">
<g id="search-status">
<path id="Vector" d="M11.5 2.5C6.26 2.5 2 6.76 2 12C2 17.24 6.26 21.5 11.5 21.5C16.74 21.5 21 17.24 21 12C21 6.76 16.74 2.5 11.5 2.5ZM11.5 14.25H8.5C8.09 14.25 7.75 13.91 7.75 13.5C7.75 13.09 8.09 12.75 8.5 12.75H11.5C11.91 12.75 12.25 13.09 12.25 13.5C12.25 13.91 11.91 14.25 11.5 14.25ZM14.5 11.25H8.5C8.09 11.25 7.75 10.91 7.75 10.5C7.75 10.09 8.09 9.75 8.5 9.75H14.5C14.91 9.75 15.25 10.09 15.25 10.5C15.25 10.91 14.91 11.25 14.5 11.25Z" fill="white"/>
<path id="Vector_2" d="M21.3005 22.4986C21.1205 22.4986 20.9405 22.4286 20.8105 22.2986L18.9505 20.4386C18.6805 20.1686 18.6805 19.7286 18.9505 19.4486C19.2205 19.1786 19.6605 19.1786 19.9405 19.4486L21.8005 21.3086C22.0705 21.5786 22.0705 22.0186 21.8005 22.2986C21.6605 22.4286 21.4805 22.4986 21.3005 22.4986Z" fill="white"/>
</g>
</g>
</svg>
